<?xml version="1.0" encoding="UTF-8"?><svg id="Layer_2" xmlns="http://www.w3.org/2000/svg" xmlns:xlink="http://www.w3.org/1999/xlink" viewBox="0 0 602.89 123.86"><defs><radialGradient id="radial-gradient" cx="107.87" cy="69.93" fx="107.87" fy="69.93" r="40.57" gradientUnits="userSpaceOnUse"><stop offset="0" stop-color="#4a0038"/><stop offset="1" stop-color="#ff0049" stop-opacity="0"/></radialGradient><radialGradient id="radial-gradient-2" cx="196.72" cy="107.22" fx="196.72" fy="107.22" r="52.79" gradientUnits="userSpaceOnUse"><stop offset=".07" stop-color="#58595b"/><stop offset="1" stop-color="#fff" stop-opacity="0"/></radialGradient><radialGradient id="radial-gradient-3" cx="193.02" cy="51.48" fx="193.02" fy="51.48" r="48.41" xlink:href="#radial-gradient-2"/><radialGradient id="radial-gradient-4" cx="252.08" cy="98.08" fx="252.08" fy="98.08" r="54.41" xlink:href="#radial-gradient-2"/></defs><g id="Layer_1-2"><g><g><path d="m411.35,109.45c-.12-.3-.32-.6-.59-.89-.27-.29-.51-.54-.71-.74-.2-.2-.51-.41-.92-.64-.41-.22-.74-.39-.98-.51-.24-.12-.62-.27-1.13-.45-.51-.18-.89-.32-1.14-.41-.25-.09-.66-.23-1.23-.44-1.63-.52-2.78-1.02-3.44-1.51-.66-.48-1-1.19-1-2.11s.35-1.73,1.06-2.29c.7-.56,1.63-.84,2.78-.84,2.29,0,3.89,1.09,4.8,3.26l2.36-1.36c-.63-1.39-1.56-2.51-2.79-3.35-1.24-.85-2.69-1.27-4.36-1.27-1.85,0-3.42.54-4.71,1.61-1.29,1.08-1.93,2.53-1.93,4.36,0,.77.14,1.45.41,2.05.27.6.58,1.09.92,1.46.34.37.86.74,1.56,1.09.69.35,1.27.61,1.74.77.47.16,1.14.39,2.01.69,1.79.56,3.07,1.1,3.83,1.6s1.15,1.26,1.15,2.26-.38,1.78-1.15,2.37c-.77.6-1.87.89-3.32.89-2.94,0-4.82-1.28-5.65-3.83l-2.42,1.39c.57,1.61,1.55,2.88,2.94,3.8,1.4.93,3.09,1.39,5.06,1.39,2.17,0,3.93-.55,5.28-1.65,1.35-1.1,2.02-2.57,2.02-4.42,0-.44-.05-.86-.14-1.25-.09-.39-.19-.74-.31-1.04Z" style="fill:#fff;"/><path d="m423.18,101.94c-2.5,0-4.4,1-5.71,2.99v-2.6h-2.63v21.13h2.63v-8.63c1.31,1.99,3.21,2.99,5.71,2.99,2.11,0,3.91-.77,5.4-2.31,1.49-1.54,2.23-3.42,2.23-5.63s-.74-4.09-2.23-5.63c-1.49-1.54-3.29-2.31-5.4-2.31Zm3.47,11.79c-1.03,1.03-2.29,1.55-3.8,1.55s-2.81-.52-3.83-1.55c-1.03-1.04-1.54-2.32-1.54-3.85s.51-2.81,1.54-3.85c1.03-1.03,2.3-1.55,3.83-1.55s2.78.52,3.8,1.55c1.03,1.04,1.54,2.32,1.54,3.85s-.51,2.81-1.54,3.85Z" style="fill:#fff;"/><path d="m436.58,104.87v-2.54h-2.63v15.09h2.63v-8c0-1.65.46-2.85,1.39-3.59.93-.74,2.03-1.09,3.32-1.03v-2.75c-2.27,0-3.84.94-4.71,2.81Z" style="fill:#fff;"/><rect x="443.86" y="102.33" width="2.63" height="15.09" style="fill:#fff;"/><path d="m445.19,96.05c-.5,0-.93.18-1.27.53-.34.35-.51.77-.51,1.25s.17.9.51,1.24c.34.34.77.51,1.27.51s.9-.17,1.24-.51c.34-.34.51-.75.51-1.24s-.17-.9-.51-1.25c-.34-.35-.75-.53-1.24-.53Z" style="fill:#fff;"/><path d="m458.02,101.94c-2.19,0-3.82.86-4.89,2.57v-2.17h-2.63v15.09h2.63v-8c0-1.69.4-2.94,1.21-3.76.8-.82,1.86-1.22,3.17-1.22,1.17,0,2.08.34,2.75,1.01.67.67,1,1.62,1,2.85v9.12h2.63v-9.27c0-1.91-.54-3.43-1.6-4.54-1.07-1.12-2.49-1.68-4.26-1.68Z" style="fill:#fff;"/><path d="m471.72,98.11l-2.63.79v3.44h-2.99v2.54h2.99v8.18c0,1.87.53,3.14,1.6,3.82,1.07.67,2.75.86,5.04.56v-2.35c-.89.04-1.63.05-2.24.05-.6-.01-1.05-.17-1.34-.48-.29-.31-.44-.84-.44-1.59v-8.18h4.01v-2.54h-4.01v-4.23Z" style="fill:#fff;"/><path d="m494.43,96.3h-7.67v21.13h2.81v-7.55h4.86c1.95,0,3.58-.65,4.87-1.96s1.95-2.92,1.95-4.83-.65-3.55-1.95-4.85-2.92-1.95-4.87-1.95Zm2.9,9.76c-.76.8-1.73,1.19-2.9,1.19h-4.86v-8.33h4.86c1.16,0,2.13.39,2.9,1.18.77.79,1.15,1.78,1.15,2.99s-.38,2.18-1.15,2.97Z" style="fill:#fff;"/><rect x="504.29" y="95.39" width="2.63" height="22.04" style="fill:#fff;"/><path d="m523.43,104.93c-1.31-1.99-3.21-2.99-5.71-2.99-2.11,0-3.92.77-5.4,2.31-1.49,1.54-2.23,3.42-2.23,5.63s.74,4.09,2.23,5.63c1.49,1.54,3.29,2.31,5.4,2.31,2.5,0,4.4-1,5.71-2.99v2.6h2.63v-15.09h-2.63v2.6Zm-1.54,8.8c-1.03,1.03-2.3,1.55-3.83,1.55s-2.78-.52-3.8-1.55c-1.03-1.04-1.54-2.32-1.54-3.85s.51-2.81,1.54-3.85c1.03-1.03,2.29-1.55,3.8-1.55s2.81.52,3.83,1.55c1.03,1.04,1.54,2.32,1.54,3.85s-.51,2.81-1.54,3.85Z" style="fill:#fff;"/><path d="m537.56,101.94c-2.19,0-3.82.86-4.89,2.57v-2.17h-2.63v15.09h2.63v-8c0-1.69.4-2.94,1.21-3.76.8-.82,1.86-1.22,3.17-1.22,1.17,0,2.08.34,2.75,1.01.67.67,1,1.62,1,2.85v9.12h2.63v-9.27c0-1.91-.54-3.43-1.6-4.54-1.07-1.12-2.49-1.68-4.26-1.68Z" style="fill:#fff;"/><path d="m554.59,101.94c-2.19,0-3.82.86-4.89,2.57v-2.17h-2.63v15.09h2.63v-8c0-1.69.4-2.94,1.21-3.76.8-.82,1.86-1.22,3.17-1.22,1.16,0,2.08.34,2.75,1.01.66.67,1,1.62,1,2.85v9.12h2.63v-9.27c0-1.91-.53-3.43-1.6-4.54-1.06-1.12-2.48-1.68-4.26-1.68Z" style="fill:#fff;"/><rect x="564.1" y="102.33" width="2.63" height="15.09" style="fill:#fff;"/><path d="m565.42,96.05c-.5,0-.93.18-1.27.53-.34.35-.51.77-.51,1.25s.17.9.51,1.24c.34.34.77.51,1.27.51s.9-.17,1.24-.51c.34-.34.51-.75.51-1.24s-.17-.9-.51-1.25c-.34-.35-.75-.53-1.24-.53Z" style="fill:#fff;"/><path d="m578.26,101.94c-2.19,0-3.82.86-4.89,2.57v-2.17h-2.63v15.09h2.63v-8c0-1.69.4-2.94,1.21-3.76.8-.82,1.86-1.22,3.17-1.22,1.17,0,2.08.34,2.75,1.01.67.67,1,1.62,1,2.85v9.12h2.63v-9.27c0-1.91-.54-3.43-1.6-4.54-1.07-1.12-2.49-1.68-4.26-1.68Z" style="fill:#fff;"/><path d="m600.29,102.33v2.6c-1.31-1.99-3.2-2.99-5.68-2.99-2.15,0-3.98.76-5.46,2.28-1.49,1.52-2.24,3.38-2.24,5.57s.74,4.06,2.24,5.59c1.49,1.53,3.31,2.29,5.46,2.29,2.45,0,4.35-1.01,5.68-3.02v2.14c0,1.43-.45,2.56-1.34,3.38s-2.13,1.24-3.7,1.24c-2.45,0-4.09-.84-4.92-2.54l-2.29,1.3c.62,1.19,1.55,2.1,2.78,2.73,1.23.63,2.69.95,4.37.95,2.11,0,3.93-.62,5.43-1.85,1.51-1.24,2.27-2.97,2.27-5.21v-14.46h-2.6Zm-1.54,11.29c-1.03,1.03-2.31,1.54-3.83,1.54s-2.81-.51-3.84-1.54c-1.03-1.03-1.54-2.31-1.54-3.83s.51-2.78,1.54-3.8c1.03-1.03,2.31-1.54,3.84-1.54s2.81.51,3.83,1.54c1.03,1.03,1.54,2.3,1.54,3.8s-.51,2.81-1.54,3.83Z" style="fill:#fff;"/></g><path d="m175.91,34.01v6.57c-4.02-5.36-9.67-8.05-16.94-8.05s-13.66,2.65-18.74,7.94c-5.08,5.29-7.62,11.68-7.62,19.17s2.52,13.96,7.57,19.22c5.05,5.26,11.31,7.89,18.8,7.89s12.92-2.68,16.94-8.05v5.72c0,4.16-1.24,7.38-3.71,9.64-2.47,2.26-6.28,3.39-10.59,3.39v12.18c7.62,0,14.14-2.15,19.54-6.46,5.4-4.31,8.1-10.56,8.1-18.74v-50.41h-13.34Zm-4.18,36.06c-2.79,2.72-6.34,4.08-10.64,4.08s-7.85-1.36-10.64-4.08c-2.79-2.72-4.18-6.19-4.18-10.43s1.39-7.61,4.18-10.32c2.79-2.72,6.34-4.08,10.64-4.08s7.85,1.36,10.64,4.08c2.79,2.72,4.18,6.16,4.18,10.32s-1.4,7.71-4.18,10.43Z" style="fill:#fff;"/><path d="m206.13,12.83c-2.19,0-4.1.82-5.71,2.47-1.61,1.65-2.42,3.57-2.42,5.76s.8,4.1,2.42,5.71c1.61,1.61,3.51,2.42,5.71,2.42s4.2-.8,5.81-2.42,2.42-3.51,2.42-5.71-.81-4.11-2.42-5.76c-1.61-1.65-3.55-2.47-5.81-2.47Z" style="fill:#ff0049;"/><rect x="199.35" y="34.01" width="13.66" height="52.95" style="fill:#fff;"/><rect x="224.36" y="12.83" width="13.66" height="74.13" style="fill:#fff;"/><path d="m274.57,32.53c-8.19,0-14.9,2.67-20.12,8-5.23,5.33-7.84,11.98-7.84,19.96s2.65,14.72,7.94,20.01c5.3,5.3,12.32,7.94,21.07,7.94,10.17,0,17.86-3.78,23.09-11.33l-11.01-6.35c-2.68,3.53-6.64,5.3-11.86,5.3-8.12,0-13.1-3.32-14.93-9.95h39.92c.35-1.98.53-3.85.53-5.61,0-7.91-2.52-14.54-7.57-19.91-5.05-5.36-11.46-8.05-19.22-8.05Zm-13.87,22.98c.78-3.39,2.37-6.02,4.77-7.89,2.4-1.87,5.44-2.81,9.11-2.81,3.11,0,5.88.88,8.31,2.65,2.44,1.77,4.04,4.45,4.82,8.05h-27Z" style="fill:#fff;"/><path d="m361.92,22.19c4.99,0,9.55,1.2,13.68,3.59,4.12,2.39,7.23,5.6,9.31,9.62l8.42-4.89c-3.12-5.41-7.47-9.71-13.05-12.9-5.58-3.19-11.7-4.78-18.36-4.78-11.02,0-20.12,3.64-27.3,10.92-7.18,7.28-10.76,16.22-10.76,26.83s3.59,19.55,10.76,26.83c7.18,7.28,16.28,10.92,27.3,10.92,6.66,0,12.79-1.61,18.41-4.84,5.62-3.22,9.95-7.54,13-12.95l-8.42-4.78c-2.08,3.95-5.18,7.12-9.31,9.52-4.13,2.39-8.68,3.59-13.68,3.59-8.39,0-15.24-2.7-20.54-8.11-5.3-5.41-7.96-12.13-7.96-20.18s2.65-14.87,7.96-20.28c5.3-5.41,12.15-8.11,20.54-8.11Z" style="fill:#fff;"/><path d="m446.16,43.93c-4.51-6.86-11.06-10.3-19.66-10.3-7.28,0-13.49,2.65-18.62,7.96-5.13,5.3-7.7,11.77-7.7,19.4s2.56,14.09,7.7,19.4c5.13,5.3,11.34,7.96,18.62,7.96,8.6,0,15.15-3.43,19.66-10.3v8.94h9.05v-52h-9.05v8.94Zm-5.3,30.32c-3.54,3.57-7.94,5.36-13.21,5.36s-9.57-1.78-13.1-5.36c-3.54-3.57-5.3-7.99-5.3-13.26s1.77-9.69,5.3-13.26c3.54-3.57,7.9-5.36,13.1-5.36s9.67,1.79,13.21,5.36c3.54,3.57,5.3,7.99,5.3,13.26s-1.77,9.69-5.3,13.26Z" style="fill:#fff;"/><path d="m475.71,42.91v-8.9h-9.21v52.95h9.21v-28.06c0-5.79,1.62-9.99,4.87-12.6,3.25-2.61,7.13-3.81,11.65-3.6v-9.64c-7.98,0-13.49,3.28-16.52,9.85Z" style="fill:#fff;"/><path d="m543.3,43.93c-4.51-6.86-11.06-10.3-19.66-10.3-7.28,0-13.49,2.65-18.62,7.96-5.13,5.3-7.7,11.77-7.7,19.4s2.56,14.09,7.7,19.4c5.13,5.3,11.34,7.96,18.62,7.96,8.6,0,15.15-3.43,19.66-10.3v8.94h9.05V14.18h-9.05v29.74Zm-5.3,30.32c-3.54,3.57-7.94,5.36-13.21,5.36s-9.57-1.78-13.1-5.36c-3.54-3.57-5.3-7.99-5.3-13.26s1.77-9.69,5.3-13.26c3.54-3.57,7.9-5.36,13.1-5.36s9.67,1.79,13.21,5.36c3.54,3.57,5.3,7.99,5.3,13.26s-1.77,9.69-5.3,13.26Z" style="fill:#fff;"/><path d="m599.92,63.85c-1.98-2.31-4.4-3.88-7.26-4.72-2.86-.84-5.7-1.67-8.52-2.5-2.83-.83-5.26-1.84-7.3-3.02-2.04-1.19-3.06-2.76-3.06-4.73,0-2.17.9-3.85,2.7-5.03,1.8-1.19,3.99-1.78,6.55-1.78,5.55,0,9.26,2.22,11.13,6.66l7.59-4.26c-1.66-3.4-4.14-6.05-7.44-7.96-3.29-1.91-7.06-2.86-11.28-2.86-5.27,0-9.66,1.46-13.16,4.37-3.5,2.91-5.25,6.62-5.25,11.13,0,3.47,1,6.31,3.02,8.53,2.01,2.22,4.44,3.76,7.3,4.62,2.86.86,5.7,1.71,8.52,2.56,2.82.85,5.24,1.88,7.26,3.09,2.01,1.21,3.02,2.82,3.02,4.83,0,2.42-.97,4.21-2.91,5.35-1.94,1.14-4.4,1.71-7.38,1.71-3.19,0-5.93-.73-8.22-2.18-2.29-1.46-3.85-3.43-4.68-5.93l-7.8,4.47c1.52,3.68,4.09,6.62,7.7,8.84,3.6,2.22,7.94,3.33,13,3.33,5.68,0,10.35-1.42,13.99-4.26,3.64-2.84,5.46-6.62,5.46-11.34,0-3.62-.99-6.58-2.97-8.89Z" style="fill:#fff;"/><path d="m384.31,109.72h-43.48c-.79,0-1.42-.64-1.42-1.42s.64-1.42,1.42-1.42h43.48c.79,0,1.42.64,1.42,1.42s-.64,1.42-1.42,1.42Z" style="fill:#fff;"/><polygon points="112.05 0 118.97 6.92 132.11 6.92 132.11 20.07 139.03 26.98 139.03 0 112.05 0" style="fill:#fff;"/><g><path d="m73.24,85.12c-3.77-.29-7.8.73-11.54-.11l-19.64,11.34-23.4-40.54,18.89-10.91c-.13-5.24-.07-10.49-.08-15.73L0,50.81l37.06,64.2,40.29-23.11-4.11-6.78Z" style="fill:#820032;"/><path d="m71.66,86.54c-.15-1.53-.28-3.04-.37-4.54l-15.6,4.18-12.11-45.21,29.5-7.91c-.72-4.63-.18-9.33-.25-14.07l-45.98,12.32,19.19,71.6,26.34-7.06c-.19-3.11-.4-6.22-.71-9.32Z" style="fill:#bc003f;"/><path d="m63.69,12.83v85.44l13.66-3.76V26.49h35.19v60.47h13.66V12.83h-62.51Z" style="fill:#ff0049;"/><path d="m112.54,29.14v57.82h13.66V28.89c-4.55.08-9.11.15-13.66.25Z" style="fill:url(#radial-gradient);"/><path d="m94.95,46.93v13.66c14.91.33,18.97,13.67,17.6,26.37h13.66c2.75-19.93-9.75-40.25-31.26-40.03Z" style="fill:#ff0049;"/></g><path d="m175.91,84.42c0,4.16-1.24,7.38-3.71,9.64-2.47,2.26-6.28,3.39-10.59,3.39v12.18c14.83,0,14.3-25.2,14.3-25.2Z" style="fill:url(#radial-gradient-2);"/><path d="m150.44,49.31c2.79-2.72,6.34-4.08,10.64-4.08s7.85,1.36,10.64,4.08c2.79,2.72,4.18,6.16,4.18,10.32v-19.06c-4.02-5.36-9.67-8.05-16.94-8.05s-13.66,2.65-18.74,7.94c-5.08,5.29-7.62,11.68-7.62,19.17h13.66c0-4.16,1.39-7.61,4.18-10.32Z" style="fill:url(#radial-gradient-3);"/><path d="m298.72,77.11c-1.1,1.6-2.32,3.02-3.64,4.27-6.37,6.06-16,7.6-23.93,3.8-11.7-5.62-10.24-19.08-10.24-19.08,1.84,6.64,6.82,9.95,14.93,9.95,5.22,0,9.17-1.76,11.86-5.29l11.02,6.35Z" style="fill:url(#radial-gradient-4);"/></g></g></svg>