<?xml version="1.0" encoding="UTF-8"?><svg id="Layer_2" xmlns="http://www.w3.org/2000/svg" xmlns:xlink="http://www.w3.org/1999/xlink" viewBox="0 0 126.2 102.18"><defs><radialGradient id="radial-gradient" cx="107.87" cy="57.1" fx="107.87" fy="57.1" r="40.57" gradientUnits="userSpaceOnUse"><stop offset="0" stop-color="#4a0038"/><stop offset="1" stop-color="#ff0049" stop-opacity="0"/></radialGradient></defs><g id="Layer_1-2"><g><path d="m73.24,72.29c-.17-.05-.41-.1-.67-.14-2.76.27-5.55.33-8.29.34-.9,0-1.76-.11-2.58-.31l-19.64,11.34-23.4-40.54,18.89-10.91c-.02-.3-.05-.6-.05-.91,0-4.94-.06-9.88-.04-14.81L0,37.98l37.06,64.2,40.29-23.11-4.11-6.78Z" style="fill:#820032;"/><path d="m71.66,73.7c-.15-1.53-.28-3.04-.37-4.54l-15.6,4.18-12.11-45.21,29.5-7.91c-.72-4.63-.18-9.33-.25-14.07l-45.98,12.32,19.19,71.6,26.34-7.06c-.19-3.11-.4-6.22-.71-9.32Z" style="fill:#bc003f;"/><polygon points="63.69 0 63.69 85.44 77.35 81.69 77.35 13.66 112.54 13.66 112.54 74.13 126.2 74.13 126.2 13.66 126.2 0 63.69 0" style="fill:#ff0049;"/><path d="m112.54,16.31v57.82h13.66V16.05c-4.55.08-9.11.15-13.66.25Z" style="fill:url(#radial-gradient);"/><path d="m94.95,34.1v13.66c4.86,0,9.26,1.96,12.44,5.15,3.18,3.18,5.15,7.58,5.15,12.44v8.77h13.66v-8.77c0-17.26-13.99-31.26-31.26-31.26Z" style="fill:#ff0049;"/></g></g></svg>